<?xml version="1.0" encoding="utf-8"?>
<svg viewBox="46.479 60 1107.042 601.69" style="enable-background:new 0 0 1200 720;" xmlns="http://www.w3.org/2000/svg">
  <defs>
    <style type="text/css">
	.st0{fill:#1E1913;}
	.st1{fill:#D2B314;}
	.st2{fill:#D59C4C;}
	.st3{fill:#A47D00;}
	.st4{fill:#B49A76;}
	.st5{fill:#A72E27;}
	.st6{fill:#E2B20B;}
	.st7{fill:#D6AF5B;}
	.st8{fill:#EACA5A;}
	.st9{fill:#FFFFFF;}
</style>
  </defs>
  <path class="st6" d="M715.71,105.41c3.87,1.96,7.5,4.53,10.89,7.26c3.46,2.79,7,4.86,13.4,4.71c5.61,0.01,9.7-2.88,12.9-9.96 c0.63-1.4,2.02-2.67,3.38-3.47c3.15-1.84,4.97-11.32,2.24-13.8c-5.02-4.56-10.91-8.2-14.65-14.11c-0.31-0.5-1.01-0.79-1.57-1.11 c-1.41-0.82-3.07-1.35-4.23-2.43c-3.6-3.32-6.54-3.38-10.18-0.18c-0.99,0.86-2.48,1.13-3.69,1.77c-2,1.06-4.04,2.08-5.89,3.36 c-0.91,0.63-1.26,2.32-2.18,2.65c-4.58,1.66-5.66,5.55-5.82,9.53C710.06,95.44,708.59,101.8,715.71,105.41z M772.57,209.51 c0.25,0.41-0.38,1.41-0.7,2.09c-0.93,1.98,0.83,8.69,2.05,10.45c1.52,2.19,2.79,4.73,3.45,7.3c1.11,4.37,0.34,9.91,2.78,13.09 c3.17,4.12,4.57,8.49,6.1,13.07c2.43,7.27,6.83,13.48,14.31,15.07c5.58,1.19,8.01,4.48,10.06,8.58c2.65,5.32,6.71,9.01,11.62,11.99 c0.63,0.38,1.5,0.37,2.19,0.69c2.65,1.23,5.25,2.57,7.91,3.77c2.05,0.93,4.11,1.91,6.28,2.51c2.98,0.82,7.02,0.29,8.9,2.12 c4.15,4.01,9.27,3.14,13.9,4.11c5.63,1.18,11.5,1.33,17.28,1.6c5.47,0.25,10.98,0.39,16.44,0.02c8.98-0.62,17.93-1.69,26.89-2.57 c0.04,0.31,0.09,0.61,0.13,0.92c3.54-0.65,7.97-0.2,10.42-2.2c3.99-3.26,8.26-3.75,12.72-3.85c3.93-0.09,7.09-1.14,9.88-3.88 c0.92-0.91,2.39-1.36,3.69-1.75c4.69-1.39,9.48-2.5,14.13-4.03c3.46-1.14,2.61-4.35,2.22-6.76c-0.43-2.72-2.98-2.56-5.1-2.35 c-1,0.1-2.02,0.51-2.93,0.99c-5.94,3.2-11.56,7.44-19.01,5.35c-0.55-0.15-1.28,0.17-1.88,0.4c-3.71,1.4-7.35,2.99-11.12,4.18 c-2.2,0.69-4.6,0.96-6.93,1.01c-1.76,0.04-3.61-1.02-5.31-0.77c-2.7,0.39-5.25,1.67-7.95,2.18c-3.94,0.76-7.63,0.15-11.57-1.32 c-7.38-2.73-15.36-1.27-23.06-1.88c-7.22-0.58-14.82-0.92-21.37-3.56c-4.4-1.77-7.93-6.42-12.69-8.66 c-1.65-0.78-3.18-2.55-4.79-2.57c-3.51-0.06-5.12-2.13-6.68-4.63c-0.69-1.1-1.51-2.13-2.23-3.21c-2.36-3.53-4.89-6.96-7-10.64 c-2.56-4.44-4.75-9.09-7.11-13.65c-0.05-0.11-0.18-0.22-0.29-0.25c-5.38-0.98-3.71-6.35-4.01-8.88c-0.6-5.14-0.52-10.07-3.86-14.45 c-0.5-0.65,0.36-2.42,0.75-3.62c0.49-1.53,1.69-3.04,1.62-4.51c-0.45-8.92,2.22-13.35,10.19-16.69c2.65-1.11,4.99-3.41,7.69-3.89 c5.76-1.02,11.65-1.31,17.5-1.66c2.4-0.14,4.44-0.22,6.4-2.15c1.43-1.41,3.83-2.47,5.84-2.55c16.53-0.71,33.07-1.34,49.61-1.62 c8.7-0.15,17.4,0.42,26.11,0.74c4.98,0.19,9.96,0.35,14.91,0.84c3.45,0.35,7.71,0.2,10.07,2.14c3.25,2.68,6.33,2.57,9.82,2.48 c1.39-0.03,2.78,0.05,4.17,0.18c4.92,0.47,9.84,0.99,14.77,1.48c2.19,0.21,2.95-0.81,3.07-3.01c0.54-9.83-0.63-11.59-10.08-14.16 c-1.8-0.48-4.15-1.75-5.33-1.07c-2.35,1.36-3.6,0.27-5.15-0.87c-4.06-2.96-14.11-2.55-18.02,0.66c-0.76,0.62-1.81,1.27-2.71,1.25 c-4.48-0.12-9.13,0.23-13.36-0.91c-5.62-1.51-11.48-2.87-15.69-7.79c-2.42-2.83-5.86-4.79-6.04-9.09c-0.02-0.38-0.7-0.72-1.04-1.11 c-2.73-3.15-5.96-6.02-8.06-9.55c-3.45-5.8-8.15-9.13-14.71-10.48c-2.38-0.49-4.47-2.28-6.75-3.35c-1.67-0.79-3.39-1.54-5.17-2.02 c-1.61-0.44-3.33-0.53-5.01-0.72c-4.77-0.56-9.58-1.68-14.33-1.5c-8.72,0.32-17.41,1.43-26.12,2.16c-2.49,0.2-5.36-0.78-6.13,3.12 c-0.15,0.74-2.07,1.21-3.24,1.64c-2.71,1-5.56,1.68-8.15,2.9c-3.1,1.46-6,3.34-8.96,5.07c-0.99,0.58-2.29,1.07-2.77,1.96 c-1.22,2.28-3.3,3.26-5.21,4.72c-3.31,2.53-5.9,6.02-8.71,9.18c-0.36,0.41-0.43,1.25-0.36,1.86c0.35,3.28,0.46,6.63,1.3,9.79 c0.76,2.88-0.71,4.36-2.61,5.51c-5.25,3.18-11.22,4.84-14.69,11.04c-2.02,3.61-4.11,6.82-3.79,10.9 C772.32,200.81,770.02,205.25,772.57,209.51z M843.13,157.29c1.14-1.1,2.34-2.15,3.36-3.35c4.42-5.17,10.29-5.97,16.56-5.55 c2.07,0.14,4.12,0.56,6.19,0.68c4.52,0.26,9.29,5.02,9.79,9.45c0.27,2.37,1.24,4.65,2.17,7.96c-4.36,1.14-8.99,2.35-13.62,3.54 c-0.63,0.16-1.63-0.06-1.89,0.3c-3.21,4.4-7.89,2.42-12.01,2.9c-6.31,0.74-12.6,1.81-18.93,2.23c-2.06,0.13-4.23-1.35-6.35-2.09 c-0.06-0.55-0.12-1.1-0.18-1.66C833.2,166.89,838.17,162.09,843.13,157.29z M757.38,135.24c-2.41-1.33-5.5-1.66-7.57-3.33 c-3.47-2.78-7.14-3.43-11.32-3.17c-3.29,0.21-6.85-0.73-9.85,0.23c-4.12,1.32-7.85,3.91-11.69,6.06c-0.39,0.22-0.46,1.16-0.52,1.77 c-0.42,4.57,0.02,8.86,3.49,12.37c0.86,0.87,1.6,2.2,1.71,3.38c0.5,5.34,0.76,10.71,1.09,16.07c0.17,2.77,0.34,5.54,0.45,8.31 c0.17,4.11,0.5,8.23,0.38,12.34c-0.22,7.79-1.98,15.63,1.14,23.27c0.33,0.82,0.23,1.79,0.38,2.69c0.43,2.56,0.57,5.22,1.37,7.65 c1.55,4.69,3.42,8.66,0.14,14.03c-2.12,3.48-2.37,9.78-0.63,13.49c1.69,3.61,2.28,6.73,2.43,10.47c0.27,6.32-1.45,12.92,2.13,18.88 c0.11,0.19,0.08,0.52,0.02,0.76c-1.15,4.43,1.65,6.7,4.71,8.96c1.2,0.89,2.08,2.23,3.08,3.39c1.02,1.18,1.77,2.88,3.04,3.47 c3.85,1.77,8.25,2.48,10.9,6.35c0.2,0.29,0.99,0.2,1.51,0.25c5.7,0.53,11.38,1.4,17.08,1.5c6.29,0.11,12.6-0.31,18.88-0.83 c2.53-0.2,5.16-1.49,4.74-4.6c-0.4-2.99,1.13-6.78-3.21-8.61c-5.15-2.16-10.96-3.19-14.52-8.41c-0.8-1.17-3.34-1.04-4.94-1.79 c-1.2-0.56-3.01-1.45-3.14-2.39c-0.4-2.88-0.99-5.9,1.88-8.36c2.74-2.35,3.09-10.83,0.14-12.47c-4.1-2.29-2.56-6.04-3.05-8.85 c-1.18-6.79-1.32-13.8-1.47-20.72c-0.07-3.42,0.77-6.86,1.18-10.3c0.09-0.76,0.42-1.79,0.06-2.25c-3.84-4.99-1.62-10.43-1.56-15.79 c0.06-4.84,2.11-10.7-4.36-13.64c-0.46-0.21-0.72-1.03-0.94-1.61c-1.27-3.38-2.5-6.78-3.74-10.16c1.37-3.1,2.83-6.44,4.33-9.76 c0.69-1.52,1.12-3.38,2.28-4.41c3.14-2.81,2.25-6.11,0.45-8.48c-2.91-3.84-4.01-7.89-4.27-12.51 C759.53,137.34,758.43,135.81,757.38,135.24z M1151.54,399.6c-0.8-2.53-6.14-8.93-8.93-9.09c-5.79-0.34-11.59-0.76-17.39-0.74 c-6.85,0.02-13.69,0.43-20.54,0.72c-5.17,0.22-10.35,0.83-15.51,0.7c-5.97-0.15-12.04-0.13-16.67-5.33 c-1.55-1.74-4.41-2.6-6.84-3.24c-4-1.04-6.77-4.22-7.07-8.51c-0.11-1.49-0.47-3.19-1.32-4.37c-5.01-7.01-4.5-10.28,2.6-14.89 c0.6,0.71,1.21,1.45,1.84,2.2c0.32-0.19,0.65-0.37,0.97-0.55c-0.48-1.27-0.96-2.53-1.59-4.21c1.33-0.47,2.69-1.19,4.12-1.42 c6.53-1.07,12.82-1.02,18.15,3.88c3.1,2.85,6.42,5.46,9.74,8.04c0.62,0.48,1.74,0.39,2.63,0.41c2.38,0.05,4.77-0.16,7.14,0.06 c3.31,0.3,5.81-0.85,7.98-3.31c1.08-1.23,2.47-2.48,3.96-2.99c6.38-2.18,10.74-5.99,12.08-12.91c1.06-5.43,0.04-6.52-5.55-7.6 c-4.06-0.79-8.59-1.49-11.27-5.29c-4.69-6.67-12.58-9.34-18.2-14.83c-0.45-0.44-1.51-0.44-2.25-0.35 c-6.39,0.81-11.69,4.56-17.29,7.2c-4.66,2.19-7.93,7.15-12.41,9.93c-4.09,2.53-8.45,4.35-12.37,7.49 c-3.75,3.01-9.27,3.42-13.53,6.76c-2.94,2.3-6.68,3.69-9.64,6.47c-3.82,3.6-6.38,8.81-12.18,10.17c-0.7,0.17-1.53,1.6-1.57,2.49 c-0.17,3.58-0.21,7.19,0.04,10.76c0.1,1.4,0.72,3.34,1.76,4c6.44,4.09,12.96,8.08,19.69,11.66c1.99,1.06,2.96,1.76,3.14,4.15 c0.52,6.86,5.68,11.92,11.87,12.14c7.11,0.26,14.23,0.6,21.34,0.7c1.11,0.02,2.23-1.04,3.37-1.52c2.54-1.08,5.05-2.81,7.67-3 c5.94-0.44,11.95-0.21,17.91-0.04c2.45,0.07,5.22,0.09,7.21,1.23c1.85,1.06,2.74,3.7,4.29,5.44c3.15,3.55,3.43,7.82,3.08,12.15 c-0.65,8.12-1.23,16.25-2.41,24.3c-0.72,4.9-1.69,10.11-4.09,14.31c-2.28,4.01-3.53,8.49-7.12,12.2c-3.64,3.77-4.54,10.12-6.92,15.2 c-0.86,1.84-2.48,3.36-3.87,4.92c-1.28,1.44-2.7,2.78-4.11,4.1c-1.32,1.23-2.72,3.38-4.08,3.38c-5.99-0.01-7.9,5.55-11.41,8.47 c-3.42,2.84-6.03,5.2-10.72,4.81c-6.14-0.5-10.41,3.5-14.68,7.1c-1.95,1.65-3.3,4.42-5.48,5.3c-3.63,1.46-7.67,1.98-11.59,2.57 c-8.09,1.22-15.49-0.24-20.4-7.41c-2.42-3.53-5.41-2.97-8.64-2.61c-3.78,0.42-5.67,2.98-6.18,6.35c-0.23,1.58,0.98,3.32,1.2,5.04 c0.52,3.87,3.08,5.36,6.45,6.33c1.52,0.44,3.39,1.23,4.13,2.45c1.54,2.55,3.58,3.08,6.25,3.06c9.12-0.06,18.24-0.19,27.35,0.05 c4.17,0.11,7.7-0.6,10.6-3.79c0.6-0.66,1.85-0.73,2.8-1.04c4.63-1.53,9.96,0.25,14.23-3.17c1.59-1.27,3.4-2.53,5.32-3.06 c5.07-1.4,11.05-0.47,14.25-6.21c0.31-0.56,1.33-0.83,2.07-1.02c3.25-0.84,6.51-1.64,9.78-2.39c4.63-1.07,9.95-0.69,11.43-7.19 c0.46-2.01,2.42-4.83,4.11-5.16c2.95-0.58,3.48-2.57,4.33-4.45c1.98-4.43,5.45-7.15,9.62-9.26c1.08-0.55,2.02-1.44,2.93-2.28 c3.39-3.1,7.36-5.69,8.85-10.44c0.44-1.41,1.27-2.7,1.94-4.03c0.7-1.36,1.2-2.91,2.18-4.03c4.6-5.22,4.8-9.37,0.47-14.88 c-2.5-3.2-2.83-6.75-0.31-9.99c2.53-3.27,5.54-6.15,8.28-9.26c0.75-0.86,1.73-1.82,1.89-2.85c0.72-4.63,1.9-9.35,1.6-13.95 C1151.54,416.95,1154.3,408.26,1151.54,399.6z M1011.15,335.81c-4.43-1.72-8.94-5.37-11.4-9.38c-2.02-3.3-4.36-3.01-6.88-3.75 c-2.96-0.87-5.45-0.3-7.99,1.69c-2.05,1.59-4.75,2.34-7.15,3.49c-1.16,0.55-2.47,0.94-3.41,1.75c-6.94,6.03-7.24,15.04-0.8,21.56 c2.36,2.39,5.09,4.51,7.05,7.2c4.92,6.72,12.01,5.98,18.87,5.82c2.22-0.05,4.88-0.63,6.53-1.96c4.35-3.52,8.3-7.55,12.31-11.46 c0.57-0.55,0.66-1.59,0.79-1.95C1018.35,342.9,1017.5,338.27,1011.15,335.81z M990.51,268.32c-1.76,0.91-3.51,1.84-5.29,2.73 c-1.44,0.72-2.87,1.56-4.39,2.05c-3.22,1.03-3.41,3.78-3.43,6.3c-0.02,2.52,2.09,3.4,4.19,2.83c2.66-0.72,5.32-1.76,7.71-3.13 c5.12-2.93,9.7-7.47,15.15-8.92c6.05-1.6,8.17-6.69,12.38-9.75c1.59-1.16,3.13-2.38,4.74-3.5c1.44-1,3.83-1.61,4.27-2.91 c1.3-3.79,2.05-7.84-0.29-11.76c-4.08-0.26-6.5,1.73-8.72,5.17c-2.02,3.13-5.19,5.58-8.03,8.14c-1.27,1.15-3.05,1.72-4.47,2.75 c-4.29,3.13-8.51,6.36-12.77,9.53C991.27,268.08,990.85,268.15,990.51,268.32z M322.42,514.82c0,3.01-0.06,6.77,3.82,8.15 c4.28,1.52,6.82,4.87,9.78,8.04c3.23,3.46,7.15,6.28,12.41,6.76c5.68,0.52,10.87,5.36,10.37,11.6c-0.23,2.89-0.37,5.87,0.1,8.7 c0.28,1.72,1.42,3.93,2.83,4.68c2.21,1.18,5,1.89,7.5,1.76c9.9-0.51,19.81-1.16,29.65-2.34c3.14-0.38,5.99-2.82,9.13-3.84 c3.71-1.2,7.63-1.76,10.12-5.29c0.39-0.55,1.28-0.93,1.99-1.06c5.5-0.98,11-1.48,16.02-4.68c3.24-2.06,7.55-2.36,11.22-3.84 c4.98-2.01,9.86-4.26,14.65-6.69c1.63-0.83,2.64-3.25,4.26-3.64c6.92-1.73,13.65-3.57,19.42-8.15c3.73-2.96,8.04-5.17,11.9-7.98 c1.02-0.74,1.49-2.37,1.96-3.68c1.21-3.36,2.44-6.74,3.38-10.18c0.91-3.31,1.99-6.7,2.07-10.08c0.15-6.18-0.47-12.37-0.61-18.57 c-0.13-5.45-0.02-10.9-0.07-16.35c-0.01-0.72-0.24-1.58-0.67-2.15c-2.45-3.25-3.45-6.76-3.39-10.91c0.05-3.72-0.87-7.47-1.6-11.16 c-0.2-1.03-1.12-2.6-1.92-2.74c-4.9-0.87-9.86-1.95-14.79-1.91c-7.33,0.06-14.64,1.28-21.97,1.48c-6.55,0.17-13.12-0.71-19.67-0.5 c-4.22,0.14-8.6,1.94-10.53,5.75c-1.5,2.97-3.06,5.38-5.45,7.7c-1.28,1.25-1.5,4.51-0.9,6.46c0.39,1.26,3.18,2.6,4.8,2.49 c4.2-0.27,8.32-1.61,12.51-1.92c1.92-0.14,4.32,0.67,5.82,1.89c2.28,1.86,2.77,4.69,2.72,7.78c-0.04,2.46,0.47,5.36,1.81,7.34 c2.62,3.87,5.99,7.23,9.02,10.82c2.89,3.42,2.62,8.51-1.33,10.17c-4.22,1.78-4.34,4.58-4.09,8.1c0.1,1.32-0.11,2.66,0.04,3.96 c0.38,3.35-0.7,5.69-3.78,7.47c-1.26,0.72-2.71,3.29-2.31,4.35c1.58,4.14-0.43,5.83-3.72,7.19c-5.08,2.1-10.43,3.76-15.15,6.49 c-8.4,4.86-17.24,4.08-26.18,3.22c-1.78-0.17-3.87-0.41-5.19-1.43c-5.49-4.24-11.63-6.58-18.43-7.69c-2.4-0.39-4.63-1.61-4.15-5.04 c0.55-3.93-0.3-7.53-3.67-10.21c-0.6-0.48-0.55-1.71-1.07-2.38c-2-2.63-1.6-6.98-5.98-8.01c-0.84-0.2-1.52-1.97-1.86-3.13 c-1.27-4.33-1.87-8.87-5.63-12.13c-2.31-2-4.79-4.19-6.12-6.83c-2.03-4.01-2.58-8.71-6.72-11.63c-1.18-0.83-1.5-2.88-2.18-4.38 c-0.36-0.79-0.42-2.04-1-2.36c-5.29-2.83-3.72-7.75-3.71-12.1c0.01-3.8,0.82-7.63,0.56-11.39c-0.33-4.76-1.65-9.46-2.03-14.23 c-0.23-2.83-0.57-6.85,1.02-8.4c3.76-3.66,5.62-7.58,5.69-12.63c0.01-0.91,0.11-1.83,0.27-2.72c0.59-3.18,0.31-7.05,2.08-9.34 c2.47-3.19,2.87-6.81,4.29-10.19c0.54-1.29,1.04-2.9,2.08-3.63c3.26-2.3,3.85-5.6,4.24-9.13c0.82-7.32,4.52-12.8,11.18-15.84 c5.36-2.45,10.9-4.68,16.57-6.19c5.01-1.33,10.27-1.7,15,1.83c2.16,1.6,4.74,2.66,7.19,3.85c2.73,1.32,5.58,2.43,8.3,3.77 c1.38,0.68,2.73,1.56,3.85,2.6c0.98,0.91,2.06,2.09,2.33,3.32c0.4,1.76-0.23,3.76,0.19,5.51c0.66,2.71,1.09,6.1,2.93,7.78 c3.69,3.38,8.56,5.32,12.76,8.21c4.14,2.85,10.2,2.41,16.11,1.23c6.16-1.25,11.25-2.57,16.38-6.67c4.65-3.72,9.76-6.47,11.49-12.61 c0.6-2.12,0.9-4.31,1.33-6.44c3.79-0.72,3.75-0.68,6.42,1.78c1.03,0.96,2.23,2.24,3.47,2.4c5.18,0.68,9.61,2.4,12.93,6.71 c0.72,0.93,2.53,1.14,3.89,1.43c3.64,0.79,6.96,1.4,9.7,4.83c2.62,3.27,5.6,7.11,10.87,7.03c2.72-0.05,5.46,0.46,8.16,0.87 c5.52,0.84,10.86,1.31,13.92-4.88c0.14-0.29,0.63-0.59,0.96-0.59c3.7-0.01,5.89-2.2,7.8-5.04c0.79-1.18,1.87-2.64,3.1-2.98 c5.71-1.59,8.47-6.56,12.44-10.16c0.9-0.81,2.17-1.22,3.31-1.73c1.82-0.8,3.87-1.25,5.46-2.36c4.02-2.79,7.74-6.01,11.78-8.78 c3.19-2.2,6.82-3.75,9.95-6.01c4.35-3.14,8.46-6.64,12.6-10.08c1.57-1.3,2.83-2.99,4.43-4.25c1.35-1.07,2.98-1.81,4.51-2.64 c1.89-1.03,4.28-1.58,5.62-3.09c3.65-4.15,7.08-8.34,13.07-9.02c0.61-0.07,1.44-0.41,1.71-0.88c3.75-6.67,12.92-5.06,17.06-11.21 c0.52-0.77,2.15-0.75,3.24-1.17c2.9-1.1,6.29-1.61,8.59-3.47c6.43-5.18,12.35-11,18.59-16.43c6.39-5.57,11.4-12.08,14.58-19.98 c0.86-2.14,2.71-4.09,2.93-6.24c0.63-6.15,1.08-12.37,0.82-18.53c-0.33-7.73-1.47-15.43-2.17-23.14c-0.16-1.69-0.19-3.46,0.09-5.13 c0.52-3.14-2.82-8.79-5.88-9.9c-1.85-0.67-3.61-1.63-5.35-2.56c-2.24-1.19-4.33-3.26-6.66-3.56c-4.09-0.53-8.32,0.15-12.48,0.04 c-9.13-0.24-18.25-0.64-27.37-1c-6.36-0.25-12.72-0.49-19.08-0.87c-0.93-0.05-2.14-0.6-2.65-1.33c-2.14-3.02-4.43-6.03-5.94-9.37 c-1.55-3.43-2.24-7.25-3.35-11.05c1.07-1.59,2.46-3.74,3.95-5.83c0.35-0.5,0.96-1,1.53-1.12c4.39-0.94,8.77-2.14,13.26-0.27 c1.5,0.62,3.82,0.27,4.67,1.28c4.29,5.05,10.36,6.91,16.04,9.37c2.69,1.17,5.76,1.45,8.66,2.09c8.18,1.8,15.94,0.41,23.39-3.18 c2.07-1,4.15-2,6.14-3.13c2.75-1.58,6.12-2.56,6.19-6.74c0.06-3.67-2.9-7.55-6.85-8.73c-4.11-1.22-8.37-2.21-10.52-6.63 c-0.29-0.59-1.24-1.21-1.87-1.2c-6.64,0.09-10.82-4.61-14.65-8.67c-3.48-3.69-7.37-4.35-11.67-4.85c-2.22-0.26-4.65-0.57-6.69,0.08 c-2.76,0.88-5.25,2.61-7.8,4.07c-1.55,0.88-2.87,2.46-4.49,2.81c-3.03,0.66-6.2,0.85-9.32,0.87c-2.81,0.02-5.27,0.23-7.53,2.34 c-2.73,2.54-5.71,4.92-8.9,6.81c-2.71,1.61-5.88,2.46-8.88,3.58c-1.04,0.39-2.65,0.22-3.18,0.93c-2.78,3.72-6.61,5.55-10.85,7.01 c-7.71,2.66-12.92,10.29-11.67,16.77c1.34,6.95,2.72,13.89,4.29,21.92c-1.75-0.88-3.13-1.24-4.07-2.09 c-4.58-4.16-9.28-8.23-13.47-12.76c-2.91-3.14-5.28-6.51-10.28-5.79c-0.72,0.11-1.62-0.74-2.37-1.24c-2.78-1.86-5.55-3.75-8.3-5.65 c-0.85-0.59-1.56-1.4-2.45-1.89c-1.9-1.05-3.79-2.24-5.85-2.83c-1.59-0.46-3.6,0.36-5.1-0.21c-7.93-3.06-15.75-0.89-23.59,0.21 c-1.47,0.21-3.46,0.78-4.11,1.85c-2.06,3.4-5.42,3.96-8.66,4.32c-6.39,0.71-10.52,5.31-15.33,8.6c-2.89,1.98-4.63,5.61-7.44,7.78 c-6.46,5.01-11.52,11.18-15.98,17.9c-0.74,1.11-1.06,2.69-1.08,4.06c-0.1,8.19-0.12,16.39,0.01,24.58c0.02,1.47,0.38,3.7,1.34,4.25 c3.61,2.07,2.94,5.82,4.15,8.81c0.84,2.1,1.37,4.51,2.77,6.17c2.23,2.63,5.17,4.64,7.61,7.11c1.02,1.03,2.25,2.6,2.19,3.85 c-0.51,9.87,6.57,15.68,11.66,22.58c1.07,1.45,1.69,3.25,2.77,4.7c1.62,2.17,3.39,5.83,5.24,5.92c4.65,0.22,6.67,3.13,9,6.05 c1.65,2.07,3.12,3.82,6.28,4.01c1.92,0.12,4.27,1.82,5.45,3.5c1.72,2.45,1.94,6.08,3.88,8.21c4.98,5.42,10.36,10.39,17.89,12.57 c5.73,1.66,11.35,1.54,17.13,1.28c4.19-0.19,8.4,0.41,12.6,0.26c6.69-0.24,13.53,0.16,19.35-4.42c1.94-1.52,4.54-2.19,6.76-3.4 c1.33-0.73,2.71-1.58,3.69-2.7c1.66-1.89,2.86-4.18,4.55-6.03c1.85-2.03,4.21-3.6,6.03-5.65c3.64-4.11,7.08-8.4,10.56-12.65 c0.54-0.66,1.16-1.45,1.24-2.24c0.61-5.97,1.08-11.95,1.65-17.91c0.12-1.26,0.03-3.04,0.79-3.65c3.99-3.2,3.27-7.52,3.11-11.65 c-0.15-3.99,1.53-8.64-3.45-11.26c-0.42-0.22-0.2-1.49-0.48-2.18c-1.48-3.75-0.9-8.67-4.63-11.08c-3.48-2.24-3.62-5.29-4.15-8.64 c-0.36-2.24-1.04-4.6-2.24-6.48c-1.3-2.04-3.08-4.14-5.17-5.25c-5.65-3.02-5.27-10.28-10.32-13.74c1.71-0.1,3.26-0.01,4.76,0.34 c8.41,1.92,16.76,3.6,25.52,1.97c3.74-0.69,7.71-0.03,11.57-0.15c4.74-0.14,9.48-0.53,14.23-0.67c3.72-0.11,7.47-0.22,11.18,0.04 c7.76,0.55,14.05,11.22,14.2,16.88c0.11,3.88,1.46,6.77,4.36,9.16c4.94,4.08,3.71,8.42-2.02,11.7c-3.44,1.97-6.39,5.55-8.35,9.07 c-1.39,2.5-0.9,6.12-1,9.25c-0.23,7.01-1.8,12.59-9.76,15.12c-3.23,1.03-6.39,4.34-7.09,8.83c-0.23,1.52-2.22,2.86-3.58,4.08 c-1.44,1.28-3.17,2.24-4.65,3.48c-1.17,0.97-2.08,2.23-3.24,3.22c-2.88,2.45-6.8,4.26-8.53,7.33c-2.79,4.96-6.66,6.85-11.78,7.64 c-1.32,0.2-2.77,0.96-3.72,1.91c-2.58,2.55-4.92,5.36-7.39,8.02c-0.43,0.46-1.03,0.79-1.61,1.04c-4.3,1.83-10.08,1.52-11.29,7.83 c-0.06,0.3-0.53,0.59-0.87,0.76c-2.62,1.35-5.2,2.79-7.9,3.97c-2.8,1.23-6.03,1.7-8.52,3.35c-5.59,3.72-10.77,8.05-16.26,11.94 c-1.28,0.91-3.09,1.38-4.69,1.48c-3.48,0.22-7.02-0.19-10.48,0.14c-3.87,0.37-7.15-0.77-10.39-2.64c-3.27-1.88-6.47-4.1-10.01-5.21 c-6.52-2.06-8.92-8.67-14.25-11.95c-1.25-0.77-2.16-2.1-3.27-3.12c-2.81-2.57-6.09-4.76-8.39-7.73 c-6.11-7.84-11.69-16.11-17.72-24.02c-2.74-3.58-6.07-6.7-9.14-10.03c-0.09-0.1-0.21-0.17-0.28-0.28c-2.25-3.68-5.27-6.77-7.9-10.08 c-4.72-5.94-7.52-13.36-11.28-20.09c-1.61-2.9-3.07-5.72-7.11-6.58c-8.58-1.81-13.63-8.85-13.2-17.26c0.05-1.03,0.16-2.29-0.33-3.09 c-3.19-5.25-6.53-10.4-10.45-16.56c1.92-1.97,4.56-4.89,7.43-7.57c4.8-4.47,10.88-7.86,11.6-15.47c0.12-1.21,1.35-2.85,2.48-3.34 c5.93-2.61,11.01-6.06,14.13-11.95c0.36-0.67,1.2-1.07,1.64-1.71c0.93-1.36,2.45-2.8,2.47-4.23c0.05-4.1,2.69-6.58,4.86-9.44 c0.58-0.77,0.88-1.83,1.07-2.8c1.03-5.31,1.55-10.83,6.5-14.39c0.35-0.26,0.56-0.88,0.61-1.36c0.57-5.55,1.56-11.12,1.43-16.65 c-0.06-2.57-2.31-5.08-3.57-7.62c-1.12-2.25-2.38-4.43-3.33-6.75c-1.2-2.93,0.74-8.02-5.48-7.35c-0.72,0.08-1.57-1.54-2.44-2.27 c-1.27-1.08-2.6-2.1-3.95-3.08c-1.37-1-3.68-1.67-4.02-2.92c-0.91-3.34-1.51-6.94-1.26-10.37c0.28-3.93-4.7-12.38-8.67-12.83 c-6.48-0.72-13-1.32-19.51-1.58c-3.77-0.15-7.57,0.68-11.36,0.65c-5.5-0.04-11-0.61-16.51-0.69c-8.09-0.13-16.19,0.01-24.29-0.06 c-2.19-0.02-4.38-0.6-6.56-0.56c-3.59,0.07-7.18,0.4-10.77,0.67c-6.93,0.53-13.85,1.04-20.77,1.66c-3.86,0.35-7.72,1.37-11.55,1.28 c-8.03-0.19-16.04-1.09-24.07-1.37c-7.38-0.25-14.78-0.17-22.16-0.01c-3.62,0.08-7.32,0.29-10.8,1.17 c-1.99,0.51-3.72,2.35-5.36,3.82c-0.64,0.58-1.26,2.28-0.95,2.63c1.76,1.96,3.6,4.87,5.8,5.25c7.8,1.35,15.79,2.77,23.62,2.35 c7.57-0.4,13.41,3.4,19.98,5.4c0.85,0.26,1.64,1.78,1.84,2.84c0.72,3.69,0.91,7.51,1.8,11.15c1.05,4.28-0.27,9.1,3.52,12.83 c3.99,3.94,3.69,8.75-0.1,12.78c-0.7,0.74-1.85,1.68-1.77,2.43c0.59,5.82-2.18,12.08,2.27,17.44c0.79,0.95,1.36,2.31,1.49,3.54 c0.65,6.41,0.93,12.86,1.71,19.25c0.94,7.7,1.17,15.31-0.8,22.89c-0.13,0.49-0.02,1.06,0.03,1.58c0.5,5.36,1.4,10.71,1.44,16.07 c0.18,19.03-0.14,38.06,0.21,57.09c0.09,4.99-1.66,10.4,1.84,15.13c0.4,0.55-0.39,2.06-0.74,3.09c-0.94,2.82-4,5.04-2.2,8.67 c0.27,0.54-0.69,1.81-1.25,2.62c-0.88,1.3-2.55,2.42-2.71,3.75c-0.27,2.21-0.01,6.35,0.75,6.52c4.91,1.11,10.01,1.72,15.07,1.82 c3.7,0.07,7.42-1.27,11.14-1.33c11.29-0.19,22.59-0.06,33.89-0.07c3.72-0.01,5.57-2.18,4.6-5.7c-1.13-4.14-0.87-8.9-5.05-11.81 c-0.62-0.43-0.83-1.59-1.05-2.46c-0.88-3.51-0.48-7.49-4.57-9.68c-0.88-0.47-1.04-2.85-1.02-4.34c0.05-2.6,0.96-5.23,0.69-7.76 c-0.69-6.45-1.82-12.86-2.79-19.28c-1.06-6.99-2.77-13.95-0.34-21.02c0.69-1.99,1.3-4.14,1.29-6.22c-0.01-2.24-1.05-4.47-1.16-6.72 c-0.13-2.53-0.43-4.59-2.25-6.77c-1.76-2.11-2.32-5.24-3.41-7.92c-0.53-1.31-0.88-2.73-1.63-3.9c-2.18-3.35-4.52-6.58-6.87-9.95 c1.45-0.88,2.08-1.37,2.79-1.67c4.15-1.69,8.25-10.82,6.9-15.04c-0.62-1.94-1.08-4.04-1.08-6.07c0.01-3.8-0.99-6.75-3.99-9.48 c-4.45-4.05-4.93-7.98-0.46-13.01c0.43-0.48,1.04-1.01,1.11-1.57c0.85-7.36,1.74-14.72,2.37-22.11c0.42-4.87,0.47-9.76,0.6-14.65 c0.09-3,0.56-6.14-0.17-8.96c-0.51-1.95,0.04-2.8,0.73-4.38c1.77-4.06,4.3-6.61,8.77-7.34c0.99-0.16,1.75-1.52,2.7-2.22 c0.81-0.59,1.77-1.49,2.61-1.44c4.43,0.31,8.95,0.46,13.24,1.49c3.44,0.82,6.63,2.75,9.88,4.29c2.17,1.03,4.45,1.98,6.33,3.43 c2.23,1.73,4.19,3.86,6.08,5.97c3.04,3.4,6.27,6.71,8.8,10.47c3.04,4.52,5.13,9.69,8.21,14.18c2.73,3.97,3.32,10.65,0.96,15.03 c-1.3,2.42-1.89,5.29-2.44,8.02c-1.2,5.96,1.31,13.11-5.71,17.18c-0.44,0.25-0.44,1.17-0.74,1.74c-1.62,3.07-2.99,6.09-5.55,8.83 c-3.45,3.71-5.25,8.94-7.97,13.39c-1.38,2.26-2.87,5.56-4.91,6.1c-3.75,0.98-6.03,3.29-8.73,5.55c-3.05,2.55-6.55,4.54-9.75,6.93 c-1.63,1.22-2.99,2.79-4.5,4.16c-1.06,0.96-2.05,2.39-3.28,2.69c-3.82,0.92-3.8,3.55-3.64,6.55c0.15,2.96-0.1,5.74,2.95,7.9 c4,2.82,7.63,6.2,11.25,9.51c3.92,3.6,5.06,9.62,10.41,12.06c0.59,0.27,1.15,1.25,1.19,1.94c0.33,5.47,4.98,7.62,8.13,10.95 c1.02,1.07,1.78,2.41,2.53,3.7c0.86,1.51,1.52,3.13,2.39,4.64c0.64,1.12,2.1,2.14,2.09,3.19c-0.04,4.61,3.42,6.83,5.99,9.72 c2.9,3.27,7.55,6.49,7.95,10.12c0.72,6.37,5.68,9.47,8.18,14.3c3.19,6.14,9.09,10.56,12.52,16.92c2.01,3.73,6.83,5.77,8.16,10.45 c0.45,1.56,0.98,3.76,2.13,4.32c3.32,1.63,5.32,4.77,7.92,6.62c3.85,2.74,4.35,5.83,5.55,10.68c-3.15-1.82-6.22-2.58-7.45-4.51 c-2.99-4.71-7.7-5.37-12.28-6.57c-2.48-0.65-4-1.92-5.58-4.17c-3.43-4.84-4.14-11.24-10.01-14.83c-4.38-2.68-7.52-7.35-11.39-10.94 c-0.81-0.75-2.38-0.95-3.6-0.94c-3.11,0.01-6.82,1.44-9.2,0.2c-4.45-2.32-7.68,0.17-10.95,1.56c-4.53,1.92-8.82,4.11-13.85,4.63 c-3.84,0.39-7.98,0.84-11.29,2.57c-4.17,2.19-8.22,4.11-12.94,4.49c-0.74,0.06-1.51,0.31-2.15,0.67c-2.85,1.59-5.66,3.24-8.47,4.91 c-1.9,1.12-3.67,2.49-5.65,3.43c-2.4,1.14-4.94,2-7.47,2.84c-2.17,0.72-4.56,0.94-6.59,1.9c-3.22,1.52-6.18,3.59-9.35,5.24 c-3.88,2.03-8.32,2.93-9.88,8.18c-1.44,4.86-2.47,10.17-6.89,13.64c-0.37,0.3-0.7,0.89-0.72,1.36c-0.22,4.93-0.5,9.87-0.48,14.81 c0.01,3.27,1.22,6.35-2.45,9.07c-2.03,1.51-2.54,5.13-3.6,7.85c-0.75,1.91-0.67,4.63-2,5.72c-3.22,2.64-3.55,6.17-4.2,9.68 c-0.28,1.53,0.26,3.32-0.29,4.7c-1.56,3.88,1.14,9.68-5.05,11.51c-0.15,0.04-0.3,0.45-0.29,0.69c0.24,5.13-1.12,10.4,2.08,15.24 c1.37,2.06,2,4.72,2.54,7.2c1.24,5.66,1.22,11.59,5.72,16.27c1.36,1.41,1.1,4.4,1.5,6.68c0.56,3.14,0.72,6.42,1.69,9.43 c0.78,2.43,2.55,4.53,3.81,6.81c1.15,2.07,2.09,4.25,3.33,6.26c1.13,1.86,2.72,3.46,3.76,5.36c1.56,2.86,2.24,6.38,4.33,8.7 C320.71,507.28,322.41,510.39,322.42,514.82z M595.96,258.47c0.54,0.54,0.73,1.7,0.65,2.53c-0.46,5.06-0.92,10.12-1.68,15.14 c-0.21,1.43-1.37,2.73-2.17,4.05c-0.39,0.65-1.33,1.2-1.34,1.81c-0.13,5.42-3.99,8.48-7.74,11.07c-2.18,1.51-5.58,1.94-8.36,1.76 c-3.61-0.23-7.12-0.75-10.52-3.28c-2.81-2.08-7.34-2.02-11.15-2.53c-6.34-0.84-7.9-2.51-9.01-8.82c-0.31-1.73-2.18-3.65-3.84-4.59 c-2.77-1.57-7.07-0.72-7.57-5.63c-0.09-0.91-1.75-2.02-2.91-2.42c-3.72-1.29-5.1-3.97-5.41-7.64c-0.09-1.04-0.71-2.25-1.46-2.99 c-2.6-2.55-5.56-4.74-7.99-7.43c-2.31-2.56-4.02-5.66-6.2-8.36c-0.92-1.14-2.37-1.86-3.66-2.83c0.88-4.99-1.83-9.87-6.14-12.22 c-2.9-1.58-6-3.58-7.76-6.23c-1.14-1.71-0.03-4.92,0.09-7.45c0.22-4.61,0.9-9.26,0.55-13.83c-0.33-4.32,1.57-7.48,3.79-10.64 c3.72-5.28,11.13-7.08,17.21-4.41c0.59,0.26,1.28,0.47,1.89,0.41c6.06-0.64,10.83,3.15,13.58,7.02c3.54,4.98,10.38,5.52,12.82,11.28 c0.24,0.56,1.87,0.5,2.84,0.78c3.03,0.89,6.09,1.74,6.2,5.79c0.15,5.01,2.89,7.65,7.7,8.52c0.95,0.17,1.94,0.72,2.66,1.38 c3.8,3.43,7.58,6.9,11.27,10.44c2.42,2.32,4.82,4.38,4.81,8.51c-0.01,2.17,2.38,4.62,4.17,6.47 C586.06,249.03,591.12,253.64,595.96,258.47z M994.48,451.11c0.22-1.44,1.03-2.79,1.59-4.18c0.77-1.95,2.15-3.88,2.22-5.86 c0.27-7.28-0.07-14.6,0.19-21.88c0.16-4.54,1.47-9.07,1.39-13.59c-0.11-5.58-1.69-11.16-1.55-16.71c0.1-3.87-0.54-6.78-3.34-9.39 c-3.04-2.85-5.55-6.39-8.94-8.66c-2.07-1.39-5.45-1.56-8.07-1.15c-3.05,0.47-5.9,2.2-8.87,3.29c-0.93,0.34-1.97,0.54-2.96,0.52 c-3.93-0.09-7.86-0.47-11.79-0.39c-3.4,0.07-5.65,3.03-4.64,6.23c1.3,4.15,3.07,8.14,4.64,12.21c0.78,2.01,2.02,3.98,2.25,6.05 c0.76,6.64,1.35,13.32,1.57,19.99c0.11,3.25,0.89,5.73,3.23,8.04c3.74,3.67,3.32,8.26-0.38,11.71c-1.45,1.35-2.62,3.25-3.33,5.11 c-1.89,4.98-0.64,11.01-5.16,15.14c-0.41,0.37-0.55,1.18-0.6,1.8c-0.35,5.66-0.87,11.32-0.88,16.98c-0.01,4.42-1.58,7.2-6.02,7.56 c-3.66,0.3-4.43,2.41-5.07,5.3c-0.53,2.36-0.92,5.12-2.39,6.82c-3.17,3.66-6.9,6.84-10.57,10.01c-2.37,2.06-4.77,1.01-5.57-2.04 c-0.34-1.31-0.92-2.6-1.58-3.79c-2.45-4.36-5.05-8.64-7.42-13.05c-0.92-1.71-1.23-3.72-2.05-5.49c-0.93-2.02-2.76-3.85-3.06-5.92 c-0.68-4.78-0.59-9.67-0.95-14.5c-0.27-3.5,0.51-8.1-1.4-10.24c-3.57-4-3.09-8.18-3.35-12.6c-0.31-5.5-0.85-10.99-1.29-16.48 c-0.43-5.31-5.56-7.67-7.59-12.09c-1.54-3.36-1.52-4.09,2.08-5.53c2.93-1.17,5.97-2.74,8.17-4.93c4.85-4.81,9.4-9.96,13.73-15.27 c3.47-4.25,1.93-8.8-3.42-9.5c-7.53-0.98-15.18-1.18-22.78-1.5c-1.44-0.06-3.13,1.65-4.37,1.31c-7.31-1.97-11.46,2.99-14.71,7.61 c-2.05,2.91-1.71,7.68-1.93,11.65c-0.17,3-0.67,5.46-2.72,7.89c-1.34,1.59-1.72,4.23-1.93,6.45c-0.47,5,3.62,8.81,3.4,14.17 c-0.2,4.96,0.11,6.99-4.51,9.91c-0.09-0.98-0.01-1.93-0.27-2.79c-2.29-7.45-5.08-14.78-6.85-22.34c-1.67-7.17-2.27-14.6-3.39-21.91 c-0.48-3.17-0.55-6.56-1.79-9.42c-2.49-5.73-5.53-11.23-8.59-16.69c-2.03-3.62-2.96-7.59-5.7-11.15c-2.57-3.35-4.8-6.42-8.43-8.74 c-2.39-1.52-3.97-4.26-6.04-6.33c-0.69-0.68-2.12-0.71-2.64-1.44c-3.28-4.6-10.03-4.78-12.76-10.1c-0.25-0.48-1.69-0.59-2.54-0.48 c-3.85,0.49-6.84-0.94-9.44-3.68c-0.63-0.66-1.82-0.78-2.77-1.11c-5.03-1.77-10.87-1.15-15.12-5.35c-0.85-0.84-2.67-0.92-4.06-0.95 c-4.79-0.13-9.58,0.03-14.36-0.13c-10.48-0.36-20.95-1.8-31.43,0.05c-0.64,0.11-1.4,0.21-1.97-0.01c-7.14-2.8-12.87,1.29-18.63,4.18 c-1.68,0.84-2.53,3.9-3.04,6.11c-0.13,0.55,2.47,2.45,3.88,2.54c5.92,0.37,11.88,0.04,17.8,0.45c7.26,0.5,14.57,1.03,21.7,2.4 c5.76,1.1,11.33,3.33,16.89,5.32c2.72,0.98,5.2,2.63,7.86,3.81c1.76,0.78,3.65,1.25,5.47,1.89c3.38,1.18,7.5,1.55,9.99,3.76 c4.88,4.32,8.5,10.02,15.01,12.46c1.13,0.43,2.23,1.62,2.79,2.73c3.11,6.18,7.11,12.06,7.73,19.18c0.39,4.47,1.5,7.92,6.11,9.88 c2.06,0.87,4.33,3.19,2.38,5.93c-3.6,5.06-3.32,10.9-3.46,16.5c-0.14,5.57,0.78,11.18,1.42,16.75c0.54,4.68-2.63,9.53,0.69,14.1 c0.27,0.37-0.18,1.25-0.26,1.89c-0.2,1.53-0.6,3.07-0.53,4.59c0.17,3.95,0.98,7.91,0.73,11.82c-0.44,7.01-1.34,14-2.34,20.96 c-0.29,2.07-1,4.74-2.47,5.81c-2.18,1.57-2.37,3.19-2.1,5.34c0.54,4.57-0.79,8.55-3.29,12.39c-1.65,2.53-2.47,5.58-4,8.21 c-1.17,2.02-2.57,4.92-4.39,5.38c-5.5,1.38-10.18,4.66-16,5.54c-6.84,1.03-11.05-0.78-12.4-7.66c-0.14-0.71-0.49-1.43-0.89-2.05 c-1.5-2.31-3.34-4.45-4.53-6.91c-1.77-3.66-3.24-7.48-4.54-11.33c-0.34-1,0.26-2.45,0.72-3.57c1.14-2.73,3.39-5.33,3.54-8.08 c0.48-9.22,1.35-18.26,4.92-26.92c1.56-3.77,1.52-8.4,3.67-11.69c5.15-7.88,10.99-15.33,16.92-22.66c2.14-2.65,5.46-4.33,7.99-6.71 c2.37-2.21,3.13-5.11,1.81-8.2c-1.17-2.72-3.24-3.56-6.07-2.3c-0.56,0.25-1.33,0.24-1.94,0.1c-4.89-1.17-9.08-0.38-12.66,3.55 c-1.08,1.18-3.15,1.56-4.84,2.06c-3.23,0.96-7.46,0.78-9.54,2.83c-3.02,2.98-5.71,5.46-9.79,7.21c-2.86,1.23-5.79,2.44-8.61,3.75 c-2.56,1.19-4.11,4.52-6.14,6.87c-0.42,0.49-0.98,0.88-1.53,1.23c-1.95,1.21-2.97,2.63-3.27,5.22c-0.5,4.31-1.25,8.92-3.3,12.62 c-1.46,2.64-2.51,5.42-3.91,7.91c-3.47,6.17-6.35,12.17-5.28,19.43c0.02,0.12-0.03,0.27-0.07,0.38c-1.83,4.64-3.22,9.24-2.4,14.44 c0.37,2.36-1.8,5.19-1.24,7.41c1.28,5.07,3.47,9.91,5.42,14.8c0.71,1.77,2.34,3.33,2.56,5.11c0.63,5.1,2.08,9.45,6.12,13.11 c3.86,3.5,6.1,8.75,12.32,9.43c2.07,0.22,4.1,1.96,5.89,3.33c3.34,2.57,9.69,2.67,12.61-0.4c2.49-2.63,5.37-3.4,8.8-3.35 c5.74,0.08,11.33-0.09,16.39-3.74c1.9-1.36,4.93-1.04,7.34-1.83c3.62-1.2,7.17-2.61,10.68-4.11c2.59-1.11,4.97-2.74,7.6-3.72 c5.86-2.18,13.01-1.26,17.21-7.43c0.5-0.74,1.92-0.77,2.74-1.36c3.01-2.17,6.13-4.23,8.85-6.72c2.02-1.85,3.67-4.18,5.13-6.52 c1.25-2.01,2.26-4.25,2.9-6.53c1.07-3.79,1.63-7.74,2.66-11.55c0.87-3.23,3.28-6.17,1.01-9.79c-2.34-3.72-4.71-7.47-6.54-11.45 c-0.72-1.58-0.85-4.56,0.13-5.6c3.27-3.47,7.17-6.34,10.68-9.32c2.55,4.02,4.88,7.67,7.17,11.33c0.2,0.31,0.38,0.79,0.28,1.09 c-1.41,4.2,1.09,7.71,2.16,11.4c1.17,4.07,3.87,7.81,4.47,11.9c1.08,7.36,5.33,12.44,10.3,17.21c1.31,1.26,3.14,2.17,4.89,2.74 c3.55,1.14,5.47,3.64,6.92,6.86c0.71,1.59,1.75,3.14,2.97,4.37c2.94,2.95,6.15,5.62,9.1,8.56c0.75,0.75,1.53,2.36,1.21,3.12 c-1.5,3.63-0.17,8.66-5.08,10.72c-0.54,0.23-1.09,1.32-1.03,1.95c0.26,2.77-1.56,3.47-3.6,4.38c-1.34,0.6-2.42,1.83-3.55,2.86 c-0.85,0.78-1.6,1.66-2.34,2.55c-1.38,1.66-3.36,3.17-3.94,5.08c-1.27,4.17-3.54,6.83-7.85,7.67c-0.63,0.12-1.42,0.11-1.85,0.48 c-3.92,3.36-6.95,7.52-11.92,10c-2.28,1.14-4.2,3.77-7.16,4.61c-1.45,0.42-3.24,1.06-4.01,2.18c-2.95,4.33-9.51,4.14-11.58,9.49 c-0.2,0.51-1.36,0.93-2.06,0.92c-5.23-0.1-8.13,4.21-11.9,6.6c-3.72,2.36-7.02,5.23-11.48,6.2c-0.81,0.18-2.08,0.64-2.21,1.19 c-0.88,3.72-3.72,3.42-6.51,3.58c-1.78,0.1-3.67,0.31-5.31,0.96c-5.55,2.21-11.01,4.66-16.52,6.97c-1.88,0.79-3.86,1.33-5.7,2.18 c-3.22,1.5-6.22,3.68-9.58,4.59c-4.25,1.15-8.78,1.21-13.15,1.96c-1.55,0.26-3.84,0.79-4.31,1.85c-1.55,3.51-4.61,3.13-7.34,3.59 c-1.67,0.28-3.51-0.28-5.13,0.13c-2.36,0.59-4.63,1.59-6.83,2.65c-1.5,0.72-2.76,2.54-4.22,2.65c-7.39,0.55-14.8,0.7-22.21,1.03 c-0.75,0.03-1.61,0.12-2.21,0.51c-1.97,1.26-3.69,3.01-5.79,3.92c-1.97,0.86-4.28,1.21-6.45,1.21c-2.75-0.01-5.56-1.11-8.24-0.83 c-5.36,0.56-10.65,1.77-15.98,2.66c-1,0.17-2.05,0.02-3.06,0.13c-4.31,0.49-9.16-0.07-12.79,1.77c-6.43,3.27-12.85,1.74-19.29,1.98 c-6.09,0.22-10.74-5.6-17.16-4.23c-1.5,0.32-3.06,0.53-4.59,0.5c-8.46-0.14-16.91-0.27-25.35-0.59c-5.39-0.2-10.76-0.76-16.15-1.11 c-6.39-0.41-13.07-2.09-19.12-0.83c-8.64,1.81-16.74-0.19-25.07-0.69c-0.96-0.06-2.04-0.57-2.81-1.18 c-3.31-2.66-7.09-3.19-11.22-3.42c-5.54-0.3-11.57-0.17-16.42-2.37c-7.26-3.28-14.74-3.25-22.19-4.19 c-4.89-0.62-9.94,0.05-14.09-3.78c-1.45-1.34-3.96-1.54-5.99-2.24c-2.43-0.83-6.03-0.91-7.07-2.59c-3.22-5.17-8.41-3.19-12.62-4.52 c-4.15-1.31-8.4-2.32-12.53-3.67c-3.01-0.99-5.9-2.33-8.85-3.5c-3.2-1.27-6.42-2.52-9.62-3.77c-1.5-0.59-2.96-1.29-4.5-1.75 c-3.79-1.11-8.25-1.24-11.23-3.42c-2.44-1.78-4.61-3.63-7.53-4.69c-4.31-1.57-8.41-3.71-12.74-5.2c-2.22-0.76-3.75-1.3-3.68-4.1 c0.02-0.86-1.53-2.01-2.61-2.58c-3.04-1.63-6.39-2.73-9.28-4.58c-4.73-3.03-9.08-6.65-13.8-9.7c-2.65-1.71-7.02-1.25-7-6.07 c0-0.3-0.79-0.6-1.19-0.92c-1.93-1.53-4.15-2.83-5.73-4.68c-2.86-3.33-6.52-3.83-10.49-4.1c-2.91-0.2-4.88,1.78-4.61,3.71 c0.53,3.78,2.03,7.51,3.64,11.04c0.99,2.15,2.91,3.88,4.44,5.79c1.08,1.35,1.94,3.44,3.33,3.88c4.73,1.51,8.91,3.71,12.98,6.61 c3.99,2.84,8.76,4.54,12.97,7.1c2.09,1.27,3.44,3.8,5.56,4.97c4.68,2.57,10.12,3.99,14.36,7.1c4.65,3.42,8.89,7.12,14.58,8.87 c3.1,0.95,5.89,2.85,8.88,4.2c5.68,2.56,12.56,2.28,17.23,7.33c0.48,0.52,1.71,0.45,2.59,0.5c4.5,0.23,8.73,0.82,12.03,4.57 c1.02,1.15,3.23,1.32,4.93,1.78c5.98,1.61,12.97-0.25,17.87,5.23c0.53,0.59,1.66,0.8,2.54,0.9c4.48,0.48,9,0.63,13.43,1.37 c3.51,0.58,6.92,1.79,10.34,2.81c2.4,0.72,4.74,1.67,7.15,2.38c4.74,1.41,9.87,2.06,14.16,4.32c3.13,1.65,5.93,2.85,9.43,2.89 c4.75,0.05,9.51,0.36,14.24,0.76c4.49,0.38,8.94,1.24,13.44,1.5c4.51,0.27,9.05-0.09,13.57,0.14c1.71,0.09,3.38,1.02,5.07,1.6 c1.41,0.48,2.79,1.32,4.23,1.43c4.32,0.34,8.67,0.2,12.98,0.62c7.52,0.72,14.99,1.93,22.51,2.53c3.35,0.27,6.77-0.59,10.16-0.66 c3.47-0.07,6.95,0.26,10.43,0.29c2.04,0.02,4.16-0.64,6.09-0.25c11.84,2.47,23.48-0.84,35.23-0.96c2.12-0.02,4.24-0.27,6.36-0.27 c8.92,0.01,17.85,0.39,26.75,0.02c4.91-0.21,9.78-1.58,14.63-2.58c1.81-0.37,3.47-1.52,5.28-1.79c4.55-0.68,9.13-1.16,13.71-1.55 c4.86-0.41,9.75-0.53,14.61-0.93c3.87-0.31,8.44,0.3,11.42-1.55c4.02-2.49,8.12-3.31,12.43-3.91c5.41-0.76,10.92-0.87,16.31-1.76 c2.29-0.38,4.27-2.38,6.57-2.96c3.51-0.89,7.23-0.93,10.73-1.83c2.42-0.62,4.66-2.04,6.94-3.19c1.82-0.92,3.47-2.22,5.36-2.92 c2.95-1.1,6.07-1.75,9.06-2.77c3.22-1.11,6.34-2.54,9.57-3.63c3.14-1.06,7.55-0.91,9.3-3.03c2.89-3.5,6.12-3.68,9.88-4.23 c5.3-0.77,11.33-0.43,15.17-4.87c3.8-4.4,9.05-6.23,13.65-9.19c4.58-2.93,9.43-5.43,14.14-8.15c0.56-0.32,1.05-0.8,1.52-1.26 c3.86-3.78,9.45-4.63,13.56-8.56c2.55-2.45,6.51-3.8,8.72-7.19c0.41-0.62,1.56-0.72,2.33-1.13c1.86-0.99,4.03-1.67,5.49-3.07 c3.85-3.72,7.37-7.76,11.06-11.65c0.43-0.45,1.07-0.71,1.58-1.1c2.49-1.89,4.92-3.88,7.48-5.69c3.1-2.17,6.39-4.06,9.43-6.31 c1.86-1.38,4.8-3.19,4.82-4.84c0.06-4.24,3.13-5.85,5.34-8.27c0.51-0.55,1.44-0.76,1.84-1.36c2.33-3.51,4.68-7.02,6.81-10.66 c1.67-2.86,3.66-5.75,4.4-8.89c1.08-4.56,2.69-8.34,6.33-11.53c3.03-2.65,5.3-6.16,7.89-9.3c0.15-0.18,0.11-0.51,0.17-0.77 c2.14-8.86,4.51-17.68,6.35-26.61C993.22,463.01,993.58,457.01,994.48,451.11z M703.22,422.22c-0.72-0.84-1.19-2.06-1.39-3.17 c-0.52-2.93-0.38-6.05-1.33-8.82c-1.27-3.71-3.26-7.18-5.05-10.7c-3.83-7.51-5.77-16.62-15.77-19.05c-0.22-0.05-0.44-0.31-0.58-0.52 c-5.35-8.02-16.23-5.33-22.55-11.57c-0.48-0.47-1.79-0.11-2.72-0.11c-6.08-0.01-12.16-0.12-18.23,0.04 c-3.72,0.09-7.45,0.12-10.44,3.27c-1.4,1.48-3.7,2.19-5.7,2.99c-5.62,2.25-11.31,4.35-16.95,6.59c-0.67,0.27-1.24,1-1.66,1.64 c-3.93,5.87-5.02,12.63-5.57,19.44c-0.07,0.87,2.37,2.14,3.83,2.87c0.79,0.39,1.96,0.11,2.94,0.01c5.8-0.59,12.82,1.16,14.45-7.54 c0.12-0.66,1.14-1.09,1.55-1.75c1.07-1.7,1.84-3.62,3.1-5.17c1.94-2.4,3.85-5.93,6.37-6.54c5.79-1.42,11.96-2.01,17.91-1.69 c4.43,0.23,9.45,0.23,13.04,4.12c1.81,1.96,4.23,3.39,5.93,5.43c1.99,2.38,4.65,5.02,4.99,7.81c1.31,10.49,1.88,21.09,2.55,31.65 c0.23,3.58,0.98,6.72,3.84,9.17c0.58,0.49,0.85,1.58,0.91,2.42c0.56,7.77,1.35,15.55,1.45,23.33c0.05,4.22,0.17,9.3-1.98,12.49 c-3.88,5.78-9.42,10.47-14.34,15.52c-0.54,0.56-1.68,0.51-2.5,0.83c-2.03,0.79-4.51,1.17-5.95,2.58c-2.26,2.22-3.92,5.09-5.66,7.81 c-3.73,5.83-9.87,7.16-15.93,8.38c-1.02,0.2-2.55-1.67-3.72-2.72c-1.25-1.12-2.37-2.38-3.51-3.62c-1.22-1.33-3.17-2.57-3.44-4.09 c-0.72-4.08-0.6-8.3-1.04-12.43c-0.39-3.69,0.63-7.65-3.93-10.26c-2.82-1.61-4.28-5.17-2.09-8.86c0.42-0.7,0.22-1.75,0.37-2.62 c0.25-1.37,0.3-2.85,0.9-4.06c1.16-2.38,3.67-4.55,3.77-6.88c0.2-4.24,0.92-7.43,5.3-8.94c0.6-0.21,1.24-1.12,1.34-1.8 c0.72-4.6,4.54-7.02,7.16-10.25c1.94-2.4,4.02-5.14,6.67-6.41c4.07-1.95,7.16-4.84,10.63-7.48c4.54-3.44,3.63-7.76,3.92-12.06 c0.04-0.61-0.94-1.82-1.51-1.86c-3.78-0.28-7.41-0.24-10.98,1.89c-5.72,3.41-11.57,6.86-17.8,9.07c-5.32,1.89-9.09,6.41-15.26,7.12 c-3.45,0.4-8.32,1.91-10.19,6.45c-0.12,0.29-0.66,0.39-0.95,0.64c-4.28,3.62-8.57,7.25-12.83,10.9c-0.28,0.23-0.57,0.67-0.55,0.99 c0.21,3.95-2.05,6.55-4.69,9.05c-0.64,0.6-0.71,1.85-0.93,2.83c-0.99,4.37-0.93,9.14-5.3,12.12c-0.72,0.5-0.83,2.06-1.02,3.16 c-0.32,1.91-0.66,3.85-0.63,5.77c0.02,1.17,0.37,2.77,1.18,3.42c3.58,2.85,4.53,6.44,4.24,10.82c-0.29,4.29,0.7,8.25,4.19,11.32 c0.99,0.88,1.57,2.36,2.05,3.67c1.95,5.4,3.79,10.84,5.67,16.27c0.5,1.43,0.83,2.97,1.59,4.25c0.76,1.28,1.78,2.59,3.01,3.36 c2.13,1.33,4.51,2.26,6.79,3.33c1.16,0.54,2.32,1.39,3.52,1.48c5.49,0.41,11,0.66,16.5,0.83c1.9,0.06,3.85-0.04,5.71-0.41 c2.52-0.51,5.04-1.18,7.44-2.09c2.12-0.79,4.1-1.96,6.1-3.04c3.13-1.69,6.5-3.09,9.26-5.27c3.35-2.64,6.14-5.99,9.21-8.98 c0.63-0.62,1.43-1.42,2.2-1.48c3.44-0.25,5.57-2.45,7.89-4.61c2.12-1.97,4.64-3.51,6.44-4.85c2.37,3.75,4.47,7.04,6.17,9.74 c-0.6,3.19-0.47,6.09-1.69,8.21c-2.62,4.53-0.21,8.99-0.39,13.43c-0.05,1.33,2.51,3.74,4.1,3.96c4.19,0.56,8.82,1.12,11.24-4 c0.28-0.58,1.31-0.79,1.98-1.19c2.86-1.66,6.07-2.92,8.49-5.08c4.18-3.75,8.79-7.37,9.85-13.49c0.37-2.16,0.26-4.67,1.36-6.38 c1.37-2.12,2.57-3.98,3.33-6.56c1.29-4.46,1.35-7.89-2.68-10.81c-0.68-0.5-0.86-1.87-1-2.88c-0.53-3.86-0.98-7.73-1.39-11.6 c-0.6-5.57-2.1-11.27-1.43-16.69c0.7-5.68-0.11-9.93-4.47-13.56c-0.78-0.64-1.74-1.98-1.55-2.72c0.78-2.99-0.65-4.14-3.07-5.41 c-3.05-1.6-3.27-6.98-0.71-9.18C706.59,430.1,706.73,426.28,703.22,422.22z M517.11,528.55c-1.53,2.96-5.42,4.6-7.85,7.22 c-1.23,1.33-1.75,3.48-2.1,5.36c-0.15,0.82,0.77,2.54,1.46,2.69c3.54,0.8,7.16,1.6,10.76,1.7c8.89,0.23,17.79,0.09,26.68,0.06 c1.05,0,2.1-0.1,3.14-0.2c7.01-0.72,14.03-1.36,21.01-2.26c1.34-0.17,3.21-1.05,3.69-2.12c1.74-3.91-0.74-9.94-4.03-12.51 c-1.65-1.29-3.12-3.52-3.51-5.55c-0.75-3.96-0.68-8.07-0.96-12.12c-0.16-2.32-0.21-4.66-0.56-6.95c-0.47-3.08-0.47-6.56-1.99-9.07 c-2.01-3.35-2.93-5.85,0.05-8.97c2.04-2.15,2.72-10.69,0.88-12.45c-2.91-2.77-3.03-6.26-3.06-9.7c-0.04-4.17,0.67-8.34,0.64-12.51 c-0.04-5.83-0.56-11.65-0.64-17.48c-0.02-1.75,0.17-4,1.21-5.2c4.11-4.7,4-10.77,5.86-16.18c0.32-0.95,0.56-1.97,1.1-2.79 c1.04-1.57,2.42-2.93,3.4-4.54c2.62-4.28,4.58-9.08,7.77-12.85c3.64-4.31,8.3-7.77,12.61-11.5c1.66-1.43,3.57-3.69,5.36-3.68 c8.17,0.05,13.92-5.7,20.8-8.5c6.82-2.78,13.01-6.4,19.37-5.24c4.22,0,7.14,0.22,10.02-0.07c2.51-0.25,5.66-0.59,5.9-3.85 c0.37-5.1,0.31-10.27-4.18-14.08c-0.69-0.59-0.99-1.75-1.26-2.71c-1.98-7.06-4.63-9.08-11.98-9.1c-1.06,0-2.16-0.18-3.17,0.03 c-6.19,1.33-13.74-0.49-17.23,7.29c-0.15,0.33-0.93,0.33-1.33,0.61c-6.2,4.36-14.71,5.47-18.57,13.18 c-0.33,0.67-1.04,1.24-1.72,1.61c-3.8,2.09-5.87,6.83-10.85,7.14c-0.3,0.02-0.72,0.48-0.82,0.81c-2.07,7.1-10.15,10.03-11.99,17.29 c-0.09,0.33-0.49,0.6-0.78,0.87c-3.15,2.93-6.34,5.81-9.45,8.78c-3.64,3.46-7.01,3.65-11.1,0.83c-2.37-1.63-4.92-3.05-8.05-1.67 c-0.77,0.34-1.88,0.38-2.67,0.1c-7.74-2.8-15.78-2.21-23.76-2.04c-1.31,0.03-3.58,1.38-3.7,2.33c-0.48,3.9-0.78,7.95-0.21,11.8 c0.45,3.03,1.83,6.19,3.66,8.65c1.52,2.05,1.46,3.22,0.16,5.06c-2.76,3.89-1.94,7.92-0.73,12.23c1.39,4.95,2.25,10.09,2.87,15.2 c0.56,4.57,0.63,9.21,0.67,13.83c0.04,5.9,2.84,11.87-0.43,17.73c-0.39,0.69-0.13,1.82,0.02,2.71c0.41,2.38,1.34,4.74,1.33,7.1 c-0.04,5.79,0.65,11.94-1.09,17.25c-1.9,5.77,1.46,10.67,0.47,16.03C517.6,521.6,518.6,525.67,517.11,528.55z M298.94,339.03 c1.36-1.64,2.18-3.75,3.18-5.68c0.56-1.08,0.67-2.69,1.52-3.26c4.01-2.7,5.73-11.01,2.58-14.35c-2.01-2.14-4.1-4.93-6.67-5.66 c-6.11-1.75-10.28-6.78-16.58-8.33c-9.5-2.35-15.5,2.61-14.18,12.1c0.42,2.99,0.74,6.8-3.12,9.27c-4.11,2.61-6.14,8.51-3.91,10.71 c3.26,3.2,5.45,7.74,10.6,8.95c2.16,0.5,4.08,2.14,6.04,3.36c1.89,1.17,3.69,2.47,5.85,3.93c2.94-1.36,5.46-2.02,7.33-3.52 C294.31,344.37,296.72,341.73,298.94,339.03z M276.96,428.57c-4.02-2.38-6.33-6.82-3.79-9.18c3.88-3.61,3.92-8.08,4.01-12.22 c0.12-5.35-0.08-11.34-2.36-15.96c-2.94-5.93-5.68-11.71-7.28-18.15c-0.77-3.09-3.47-5.65-4.5-8.71c-2.15-6.44-7.06-11.86-7-19.11 c0-0.53-0.55-1.3-1.06-1.55c-4.79-2.42-4.68-7.91-7.34-11.69c-3.3-4.69-4.69-10.72-10.1-13.92c-0.43-0.26-0.63-1.25-0.59-1.88 c0.26-3.86-1.87-6.17-5.14-7.36c-3.83-1.39-8.86-0.22-10.82-5.39c-0.07-0.18-0.74-0.14-1.13-0.17c-7.28-0.54-14.55-1.25-21.84-1.55 c-6.37-0.26-12.76-0.16-19.13,0c-2.15,0.05-4.31,1.24-6.42,1.1c-6.45-0.44-12.86-1.72-19.3-1.82c-6.03-0.09-12.07,1.41-18.1,1.32 c-7.83-0.12-11.12,5.86-14.49,10.76c-2.63,3.82-5.25,7.48-9.41,8.55c-4.48,1.16-9.27,0.86-12.37,5.21c-0.25,0.35-1.27,0.08-1.9,0.22 c-3.73,0.86-8.14,1.71-9.47,5.43c-3,8.39-11.88,12.53-14.3,21.49c-0.91,3.37-5.5,5.68-8.22,8.64c-1.41,1.53-2.48,3.4-3.52,5.22 c-1.1,1.9-1.97,3.93-2.97,5.88c-0.91,1.77-2.28,3.42-2.72,5.3c-1.62,6.85-0.41,14.53-6.13,20.15c-0.21,0.21-0.1,0.77-0.07,1.16 c0.22,4.25,0.51,8.48,0.68,12.73c0.1,2.54,0.3,5.13-0.08,7.61c-0.79,5.2-2.56,10.32-2.81,15.52c-0.3,6.26,0.47,12.57,0.93,18.85 c0.27,3.63,0.97,7.23,1.23,10.86c0.29,4,1.08,7.71,4.15,10.6c0.62,0.59,1.2,1.44,1.37,2.26c1.16,5.49,4.49,9.43,8.64,12.96 c1.45,1.24,2.82,3.07,3.28,4.87c0.86,3.41,2.75,5.67,5.6,7.51c1.03,0.67,1.69,2,2.34,3.13c0.87,1.5,1.26,3.37,2.39,4.59 c3.05,3.3,6.34,6.38,9.61,9.47c1.62,1.53,3.36,2.95,5.12,4.32c0.68,0.53,1.85,0.56,2.34,1.19c4.64,5.94,11.38,8.49,17.94,11.32 c2.75,1.19,6.26,0.92,7.75,4.48c0.3,0.71,1.74,1.18,2.71,1.32c4.64,0.64,9.3,1.1,13.94,1.68c0.87,0.11,2.16,0.15,2.5,0.7 c2.97,4.76,8.08,3.44,12.14,3.85c12.06,1.21,24.2,1.59,33.19,2.11c10.55-0.7,17.58-1.28,24.01-6.29c3.4-2.65,7.04-4.91,10.16-8.07 c2.85-2.89,6.62-4.84,9.8-7.44c3.61-2.95,7.34-5.87,10.39-9.36c2.1-2.4,4.56-5.88,4.3-8.63c-0.47-4.95,1.37-7.29,5.23-9.48 c2.8-1.59,5.4-3.73,7.59-6.08c1.41-1.5,1.87-3.86,2.83-5.79c0.94-1.9,2.01-3.72,2.96-5.62c1.76-3.52,3.62-7,5.14-10.62 c0.87-2.08,1.18-4.41,1.7-6.63c0.17-0.71,0.03-1.55,0.36-2.14c2.11-3.82,4.42-7.53,6.43-11.4c0.99-1.9,1.58-4.03,2.15-6.11 c0.92-3.34,1.31-6.87,2.57-10.07C282.45,432.5,282.4,431.8,276.96,428.57z M236.9,437.66c-0.89,1.02-0.86,2.92-1.04,4.44 c-0.6,4.91-1.05,9.84-1.71,14.74c-0.13,0.96-0.67,2.12-1.4,2.71c-3.43,2.8-3.94,6.84-4.87,10.72c-0.17,0.73-0.31,1.72-0.82,2.07 c-3.7,2.58-4.68,6.51-5.56,10.55c-0.13,0.62-0.36,1.29-0.75,1.77c-4.39,5.4-8.85,10.76-13.24,16.16c-1.81,2.22-3.6,4.45-5.24,6.78 c-2.82,4-5.51,8.09-8.27,12.14c-0.14,0.21-0.36,0.48-0.58,0.51c-7.82,1.02-14.94,5.95-23.41,3.7c-2.63-0.7-5.71,0.42-8.59,0.43 c-2.06,0.01-4.13-0.45-6.19-0.68c-7.2-0.82-14.4-1.6-21.6-2.45c-0.47-0.05-1.12-0.3-1.34-0.67c-2.25-3.85-6.05-4.66-9.97-5.75 c-2.12-0.59-3.92-2.62-5.66-4.23c-5.12-4.74-10.35-9.39-15.1-14.49c-2.38-2.56-3.72-6.07-5.7-9.03c-3.17-4.76-6.29-9.59-9.81-14.08 c-1.99-2.55-4.74-4.51-7.42-6.99c6.45-5.75,10.54-11.78,10.89-19.6c0.16-3.65-0.67-7.33-0.67-11c0-9.69-0.42-19.44,0.59-29.04 c0.55-5.24,0.38-11.37,5.28-15.48c0.77-0.64,0.85-2.12,1.21-3.22c0.35-1.1,0.31-2.51,1.01-3.28c3.18-3.53,6.76-6.72,9.79-10.36 c3.31-3.98,7.52-6.89,9.79-12.21c2.23-5.22,5.81-11.12,13.24-11.39c0.57-0.02,1.2-0.46,1.67-0.86c3.75-3.15,7.34-6.51,11.23-9.46 c2.12-1.6,4.74-2.51,7.1-3.8c2.8-1.52,5.47-3.31,8.37-4.61c2.07-0.92,4.46-1.84,6.63-1.68c4.8,0.35,8.07-2.51,11.54-4.79 c6.07-4,19.8-1.88,23.86,4.21c2.46,3.68,4.32,7.74,6.69,11.48c2.68,4.26,5.16,8.8,8.59,12.38c2.98,3.1,3.77,6.52,4.58,10.35 c1.11,5.29,1.35,11.48,4.36,15.49c3.88,5.18,3.39,10.97,5.44,16.22c2.09,5.34,5.61,10.12,8.4,15.21c0.71,1.29,1.42,2.77,1.49,4.19 c0.2,4.09-0.08,8.2,0.11,12.28C240.03,430.97,239.65,434.51,236.9,437.66z"/>
</svg>